<?xml version="1.0" encoding="UTF-8" standalone="no"?>
<svg
   xmlns:dc="http://purl.org/dc/elements/1.1/"
   xmlns:cc="http://creativecommons.org/ns#"
   xmlns:rdf="http://www.w3.org/1999/02/22-rdf-syntax-ns#"
   xmlns:svg="http://www.w3.org/2000/svg"
   xmlns="http://www.w3.org/2000/svg"
   xmlns:sodipodi="http://sodipodi.sourceforge.net/DTD/sodipodi-0.dtd"
   xmlns:inkscape="http://www.inkscape.org/namespaces/inkscape"
   id="svg3039"
   version="1.1"
   inkscape:version="0.91 r13725"
   width="474.55444"
   height="516.6778"
   sodipodi:docname="image2.svg">
  <metadata
     id="metadata3045">
    <rdf:RDF>
      <cc:Work
         rdf:about="">
        <dc:format>image/svg+xml</dc:format>
        <dc:type
           rdf:resource="http://purl.org/dc/dcmitype/StillImage" />
        <dc:title></dc:title>
      </cc:Work>
    </rdf:RDF>
  </metadata>
  <defs
     id="defs3043" />
  <sodipodi:namedview
     pagecolor="#ffffff"
     bordercolor="#666666"
     borderopacity="1"
     objecttolerance="10"
     gridtolerance="10"
     guidetolerance="10"
     inkscape:pageopacity="0"
     inkscape:pageshadow="2"
     inkscape:window-width="1920"
     inkscape:window-height="971"
     id="namedview3041"
     showgrid="false"
     inkscape:zoom="1.1666667"
     inkscape:cx="397.04724"
     inkscape:cy="208.16714"
     inkscape:window-x="0"
     inkscape:window-y="42"
     inkscape:window-maximized="1"
     inkscape:current-layer="svg3039"
     fit-margin-top="0"
     fit-margin-left="0"
     fit-margin-right="0"
     fit-margin-bottom="0" />
  <text
     xml:space="preserve"
     style="font-size:16px;font-style:normal;font-variant:normal;font-weight:normal;font-stretch:normal;line-height:125%;letter-spacing:0px;word-spacing:0px;fill:#000000;fill-opacity:1;stroke:none;font-family:BD Cartoon Shout;-inkscape-font-specification:BD Cartoon Shout"
     x="20.231075"
     y="74.967812"
     id="text3936"
     sodipodi:linespacing="125%"><tspan
       sodipodi:role="line"
       id="tspan3938"
       x="20.231075"
       y="74.967812" /></text>
  <g
     id="g4206"
     transform="translate(11.071708,-6.3019311)">
    <path
       sodipodi:nodetypes="cccccc"
       inkscape:connector-curvature="0"
       id="path3828"
       d="m -4.4846957,48.396873 c 21.9465397,-0.22508 43.8934297,-0.214286 65.8407197,-0.214286 8.41287,8.845089 18.1767,16.522036 26.27154,25.650796 -10.32236,11.828105 -15.00332,16.859097 -25.06702,27.908927 -22.21428,0.004 -44.64286,-0.0993 -66.8571397,-0.0954 -0.11394,-53.2195 0.0155,-0.007 -0.1881,-53.249994 z"
       style="fill:#319a31;fill-opacity:1;stroke:none" />
    <text
       sodipodi:linespacing="125%"
       id="text3932-0"
       y="84.738838"
       x="48.150673"
       style="font-size:32px;font-style:normal;font-variant:normal;font-weight:normal;font-stretch:normal;line-height:125%;letter-spacing:0px;word-spacing:0px;fill:#000000;fill-opacity:1;stroke:none;font-family:Arial;-inkscape-font-specification:Arial"
       xml:space="preserve"><tspan
         y="84.738838"
         x="48.150673"
         id="tspan3934-8"
         sodipodi:role="line">A</tspan></text>
  </g>
  <g
     id="g4214"
     transform="translate(11.071708,-5.701313)">
    <path
       sodipodi:nodetypes="ccccccc"
       inkscape:connector-curvature="0"
       id="path3828-9"
       d="m -4.4846957,111.18884 c 21.9465397,-0.22508 83.8934297,-0.21428 105.8407157,-0.21428 8.41287,8.84509 18.1767,16.52203 26.27154,25.65079 -10.32236,11.82811 -15.00332,16.8591 -25.06702,27.90892 -22.214276,0.004 -84.642856,-0.0993 -106.8571357,-0.0954 -0.11394,-53.21949 0.0155,-0.007 -0.1881,-53.24998 z"
       style="fill:#33cc33;fill-opacity:1;stroke:none" />
    <text
       sodipodi:linespacing="125%"
       id="text3932"
       y="147.42857"
       x="87.285713"
       style="font-size:32px;font-style:normal;font-variant:normal;font-weight:normal;font-stretch:normal;line-height:125%;letter-spacing:0px;word-spacing:0px;fill:#000000;fill-opacity:1;stroke:none;font-family:Arial;-inkscape-font-specification:Arial"
       xml:space="preserve"><tspan
         y="147.42857"
         x="87.285713"
         id="tspan3934"
         sodipodi:role="line">B</tspan></text>
  </g>
  <g
     id="g4221"
     transform="translate(11.071708,-5.1007101)">
    <path
       sodipodi:nodetypes="ccccccc"
       inkscape:connector-curvature="0"
       id="path3828-9-7"
       d="m -4.4846957,173.9808 c 21.9465407,-0.22508 125.8934357,-0.21428 147.8407257,-0.21428 8.41287,8.84509 18.1767,16.52203 26.27154,25.65079 -10.32236,11.82811 -15.00332,16.8591 -25.06702,27.90892 -22.21428,0.004 -126.642865,-0.0993 -148.8571457,-0.0954 -0.11394,-53.21949 0.0155,-0.007 -0.1881,-53.24998 z"
       style="fill:#ccff33;fill-opacity:1;stroke:none" />
    <text
       sodipodi:linespacing="125%"
       id="text3932-8"
       y="210.04391"
       x="127.29173"
       style="font-size:32px;font-style:normal;font-variant:normal;font-weight:normal;font-stretch:normal;line-height:125%;letter-spacing:0px;word-spacing:0px;fill:#000000;fill-opacity:1;stroke:none;font-family:Arial;-inkscape-font-specification:Arial"
       xml:space="preserve"><tspan
         y="210.04391"
         x="127.29173"
         id="tspan3934-9"
         sodipodi:role="line">C</tspan></text>
  </g>
  <g
     id="g4228"
     transform="translate(11.071708,-4.500112)">
    <path
       sodipodi:nodetypes="ccccccc"
       inkscape:connector-curvature="0"
       id="path3828-9-7-1"
       d="M -4.4846957,236.77278 C 17.461845,236.5477 163.40874,236.5585 185.35603,236.5585 c 8.41287,8.84509 18.17669,16.52203 26.27153,25.65079 -10.32236,11.82811 -15.00331,16.8591 -25.06701,27.90892 -22.21428,0.004 -168.642865,-0.0993 -190.8571457,-0.0954 -0.11394,-53.21949 0.0155,-0.007 -0.1881,-53.24998 z"
       style="fill:#ffff00;fill-opacity:1;stroke:none" />
    <text
       sodipodi:linespacing="125%"
       id="text3932-8-5"
       y="272.65308"
       x="166.98003"
       style="font-size:32px;font-style:normal;font-variant:normal;font-weight:normal;font-stretch:normal;line-height:125%;letter-spacing:0px;word-spacing:0px;fill:#000000;fill-opacity:1;stroke:none;font-family:Arial;-inkscape-font-specification:Arial"
       xml:space="preserve"><tspan
         y="272.65308"
         x="166.98003"
         id="tspan3934-9-6"
         sodipodi:role="line">D</tspan></text>
  </g>
  <g
     id="g4235"
     transform="translate(11.071708,-3.8995215)">
    <path
       sodipodi:nodetypes="ccccccc"
       inkscape:connector-curvature="0"
       id="path3828-9-7-1-4"
       d="m -4.4846957,299.56476 c 21.9465407,-0.22508 207.8934257,-0.21428 229.8407157,-0.21428 8.41287,8.84509 18.17669,16.52203 26.27153,25.65079 -10.32236,11.82811 -15.00331,16.8591 -25.06701,27.90892 -22.21428,0.004 -208.642855,-0.0993 -230.8571357,-0.0954 -0.11394,-53.21949 0.0155,-0.007 -0.1881,-53.24998 z"
       style="fill:#ffcc00;fill-opacity:1;stroke:none" />
    <text
       sodipodi:linespacing="125%"
       id="text3932-8-2"
       y="336.65308"
       x="208.98003"
       style="font-size:32px;font-style:normal;font-variant:normal;font-weight:normal;font-stretch:normal;line-height:125%;letter-spacing:0px;word-spacing:0px;fill:#000000;fill-opacity:1;stroke:none;font-family:Arial;-inkscape-font-specification:Arial"
       xml:space="preserve"><tspan
         y="336.65308"
         x="208.98003"
         id="tspan3934-9-2"
         sodipodi:role="line">E</tspan></text>
  </g>
  <g
     id="g4242"
     transform="translate(11.071708,-3.2989172)">
    <path
       sodipodi:nodetypes="ccccccc"
       inkscape:connector-curvature="0"
       id="path3828-9-7-1-4-3"
       d="m -4.4846957,362.35673 c 21.9465397,-0.22508 247.8934257,-0.21428 269.8407157,-0.21428 8.41287,8.84509 18.17669,16.52203 26.27153,25.65079 -10.32236,11.82811 -15.00331,16.8591 -25.06701,27.90892 -22.21428,0.004 -248.642856,-0.0993 -270.8571357,-0.0954 -0.11394,-53.21949 0.0155,-0.007 -0.1881,-53.24998 z"
       style="fill:#ff9a33;fill-opacity:1;stroke:none" />
    <text
       sodipodi:linespacing="125%"
       id="text3932-8-2-8"
       y="397.44498"
       x="248.98003"
       style="font-size:32px;font-style:normal;font-variant:normal;font-weight:normal;font-stretch:normal;line-height:125%;letter-spacing:0px;word-spacing:0px;fill:#000000;fill-opacity:1;stroke:none;font-family:Arial;-inkscape-font-specification:Arial"
       xml:space="preserve"><tspan
         y="397.44498"
         x="248.98003"
         id="tspan3934-9-2-5"
         sodipodi:role="line">F</tspan></text>
  </g>
  <g
     id="g4249"
     transform="translate(11.071708,-2.6983129)">
    <path
       sodipodi:nodetypes="ccccccc"
       inkscape:connector-curvature="0"
       id="path3828-9-7-1-4-3-1"
       d="m -4.4846957,425.1487 c 21.9465387,-0.22508 287.8934257,-0.21428 309.8407157,-0.21428 8.41287,8.84509 18.17669,16.52203 26.27153,25.65079 -10.32236,11.82811 -15.00331,16.8591 -25.06701,27.90892 -22.21428,0.004 -288.642857,-0.0993 -310.8571357,-0.0954 -0.11394,-53.21949 0.0155,-0.007 -0.1881,-53.24998 z"
       style="fill:#ff0000;fill-opacity:1;stroke:none" />
    <text
       sodipodi:linespacing="125%"
       id="text3932-8-2-8-9"
       y="461.93228"
       x="290.49271"
       style="font-size:32px;font-style:normal;font-variant:normal;font-weight:normal;font-stretch:normal;line-height:125%;letter-spacing:0px;word-spacing:0px;fill:#fafafa;fill-opacity:1;stroke:none;font-family:Arial;-inkscape-font-specification:Arial"
       xml:space="preserve"><tspan
         y="461.93228"
         x="290.49271"
         id="tspan3934-9-2-5-2"
         sodipodi:role="line">G</tspan></text>
  </g>
  <text
     xml:space="preserve"
     style="font-size:16px;font-style:normal;font-variant:normal;font-weight:normal;font-stretch:normal;line-height:125%;letter-spacing:0px;word-spacing:0px;fill:#000000;fill-opacity:1;stroke:none;font-family:BD Cartoon Shout;-inkscape-font-specification:BD Cartoon Shout"
     x="-480.98462"
     y="361.17355"
     id="text3940-6"
     sodipodi:linespacing="125%"
     transform="scale(-1,1)"><tspan
       sodipodi:role="line"
       id="tspan3942-6"
       x="-480.98462"
       y="361.17355"
       style="font-size:20px" /></text>
</svg>
